<svg xmlns="http://www.w3.org/2000/svg"
  xmlns:xlink="http://www.w3.org/1999/xlink" viewBox="0 0 1920 551.547">
  <defs>
    <clipPath id="clip-path">
      <rect id="Rectangle_3" data-name="Rectangle 3" width="1920" height="551.547" fill="none"/>
    </clipPath>
  </defs>
  <g id="Group_2" data-name="Group 2" clip-path="url(#clip-path)">
    <path id="Path_3" data-name="Path 3" d="M2.558,153.4C7.441,133.92,9.8,114.925,17.041,98.019c9.246-21.572,29.394-27.349,51.6-24.925,21.336,2.328,34.857,15.781,40.237,35.177,4.357,15.7,5.077,32.544,6.222,48.961.959,13.74.2,27.6.2,42.8,3.934-12.519,6.778-24.206,11.219-35.253,19.964-49.664,54-84.135,107.949-95.05,24.236-4.9,48.8-4.15,72.632,3.871,36.384,12.244,61.234,47.269,63.625,90.208.635,11.395.1,22.855.1,32.679,7.543-17.967,14.261-37.781,23.851-56.1,29.864-57.049,99.947-86.514,161.851-68.861,39.567,11.284,62.52,38.691,67.868,78.292,4.043,29.94,2.822,60.577,4.163,90.894.922,20.854-.593,42.318,3.9,62.415,11.555,51.7,40.359,90.123,93.041,107.063a10.131,10.131,0,0,1,5.983,5.365h-221.9c3.644-2.369,5.154-3.983,6.955-4.432,60.315-14.995,104.621-76.509,104.812-134.365.038-11.454.227-22.909.059-34.36-.629-42.8-25.659-68.239-63.159-80.966-46.6-15.812-94.216-16.173-140.008,4.387-30.024,13.479-46.523,37.289-46.091,70.943.268,20.884-1.448,42.426,3.01,62.5,12.354,55.641,45.209,94.5,101.258,111.529,1.975.6,3.721,1.948,8.782,4.68H256.91q-.276-1.235-.551-2.472c3.032-1.132,6.018-2.414,9.1-3.373,57.065-17.726,99.561-75.187,99.6-134.733.005-7.5-.241-15.021.039-22.515,1.908-50.977-22.921-77.163-63.894-91.125-45.762-15.594-92.576-15.676-137.813,3.853-28.362,12.244-46.11,33.964-47.088,65.4-.769,24.714-1.888,50.436,3.8,74.121,12.626,52.616,45.585,89.079,98.49,105.667a43.82,43.82,0,0,1,5.551,2.06c.528.249.7,1.262,1.6,3.07H.529Q.265,414.56,0,413.69c2.142-1.162,4.161-2.712,6.443-3.43,57.635-18.152,98.959-68.8,102.222-129.055a354.974,354.974,0,0,0-4.032-76.524c-5.26-31.826-28.49-49.62-60.787-51.177-12.492-.6-25.037-.1-41.288-.1" transform="translate(0 0.039)" fill="#f8ec00"/>
    <path id="Path_4" data-name="Path 4" d="M833.694,539.6c-30.951,13.406-61.913,16.226-91.8-3.181-21.211-13.772-30.152-39.565-19.552-64.782,7.627-18.143,19.659-34.891,31.965-50.5,13.156-16.691,28.755-31.5,43.691-46.736,4.567-4.661,5.747-8.426,2.47-14.363-36.562-66.249-72.259-132.986-109.757-198.7-11.435-20.039-26.492-38.433-42.161-55.5C638.771,95.173,624.74,88.4,612.616,79.882a50.794,50.794,0,0,1-4.638-3.379c-.418-.37-.191-1.465-.37-3.462H804.98q.411,1.592.819,3.188c-3.506,1.284-6.931,2.9-10.535,3.8-34.763,8.689-54.678,32.582-58.543,68.189-4.332,39.92,7.019,76.268,23.895,111.37,16.02,33.325,32.96,66.208,54.133,102.245,3.247-4.9,6-10.235,9.826-14.633,17.114-19.66,35.963-37.986,51.563-58.756,38.247-50.918,37.137-127.288-1.233-178.189-4.685-6.215-10.7-11.434-16.914-17.981,11.644-16.111,29.538-22.244,48.272-24.944a100.24,100.24,0,0,1,35.225,1.553c29.768,6.588,46.131,32.16,43.7,62.715-2.538,31.872-14.443,60.2-33.992,84.3-33.556,41.367-69.269,80.993-104.1,121.326a87.116,87.116,0,0,1-8.091,8.66C794.6,384.957,792.913,433,810.531,484.493c6.317,18.463,15.085,36.09,23.163,55.107" transform="translate(0 0.039)" fill="#f8ec00"/>
    <path id="Path_5" data-name="Path 5" d="M1920,74.134H1721.127q-.37,1.631-.739,3.263c3.588,1.266,7.1,2.841,10.775,3.751,34.079,8.449,54.466,32.59,58.275,67.169,4.346,39.438-6.265,75.563-23.029,110.357-15.743,32.676-32.283,64.969-48.525,97.4-.673,1.345-1.885,2.421-3.912,4.955-36.211-40.379-81.338-74.059-89.627-132.094-7.338-51.376,3.845-97.844,43.751-135.723-11.052-15.46-28.2-21.047-46.024-24.736-45.149-9.348-78.424,13.918-80.861,57.326-1.26,22.442,4.151,44.692,16.721,63.081,21.536,31.5,44.536,62.14,68.724,91.669a866.393,866.393,0,0,0,66.434,72.52c33.069,32.11,39.061,70.321,27.979,112.1-6.7,25.279-17.5,49.475-26.7,74.8,27.344,19.424,85.751,15.039,105.533-18.777,12.233-20.912,10.811-43.456-1.805-62.885-13.663-21.042-30.752-39.917-46.875-59.3-7.307-8.783-16.234-16.217-23.674-24.9-2.178-2.541-3.618-8.2-2.281-10.889C1764.1,285.2,1802.2,206.695,1853.437,135.675c16.606-23.016,33.7-46.108,62.465-55.972,1.343-.46,2.068-2.718,4.1-5.569" transform="translate(0 0.039)" fill="#f8ec00"/>
    <path id="Path_6" data-name="Path 6" d="M1484.193,416.806H1228.662q-.582-1.273-1.162-2.546c2.4-1.553,4.6-3.926,7.221-4.538,54.9-12.81,106.584-76.7,102.469-143.039-1.267-20.423-.809-41.17-4.41-61.183-5.342-29.679-27.6-48.143-57.723-50.482-13.268-1.03-26.683-.173-41.65-.173,1.845-24.931,2.076-49.515,19.961-68.777,24.73-26.634,72.287-16.772,84.295,18.651,5.928,17.487,6.176,36.955,8.424,55.6.863,7.166.14,14.524,1.795,21.726,6.251-15.9,11.379-32.347,18.973-47.575,19.476-39.051,48.285-66.587,94.789-67.99,36.893-1.113,57.212,18.553,59.411,55.515,1.362,22.881-5.693,45.438-18.981,59.491-21.568-25.738-50.754-29.561-81.647-26.971-36.433,3.055-68.514,36.712-72.488,76.3-2.337,23.279-2.217,47.592,1.831,70.557,8.286,47,39.179,76.968,82.217,94.807,13.756,5.7,28.59,8.8,42.885,13.229,3.567,1.106,6.961,2.771,10.434,4.178Z" transform="translate(0 0.039)" fill="#f8ec00"/>
    <path id="Path_7" data-name="Path 7" d="M1052.936.006c16.59-.254,24.981,7.437,23.475,25.339-.91,10.813-4.385,21.416-6.781,32.1-.923,4.121-2.052,8.2-3.466,13.792h142.624c10.2,45.882-15.453,79.817-60.371,80.786-26.8.577-53.634.105-81.939.105,0,27.008-.232,52.907.089,78.8.183,14.925.033,30.016,2.17,44.722,6.018,41.426,37.522,59.767,74.34,62.992a203.089,203.089,0,0,0,34.164.011c10.8-.885,21.463-3.535,32.183-5.409,7.347,49.926-11.177,81.555-44.424,87.6-51.6,9.376-97.279-10.778-105.447-72.576a280.441,280.441,0,0,1-2.053-35.414c-.219-48.949-.092-97.9-.092-146.848V152.1H998.294l-1.593-3.48c2.765-2.07,5.244-5.235,8.341-6.043,32.156-8.382,49.181-29.89,50.427-62.039,1.028-26.525-1.535-53.189-2.533-80.534" transform="translate(0 0)" fill="#f8ec00"/>
  </g>
</svg>
