<svg xmlns="http://www.w3.org/2000/svg" width="31.929" height="30.489" viewBox="0 0 31.929 30.489">
  <path id="Path_49" data-name="Path 49" d="M109.849,10.767c.06,0,.121-.008.181-.008q5.541,0,11.081,0a.185.185,0,0,0,.209-.15q1.855-5.27,3.718-10.54l.007-.025h.234c.052.16.1.321.155.479q1.779,5.04,3.555,10.079a.193.193,0,0,0,.217.157q5.66-.006,11.319,0h.162l.009.028-.638.5q-4.162,3.27-8.327,6.536a.167.167,0,0,0-.064.215q1.582,5.362,3.159,10.726c.012.04.019.082.034.147l-9.7-6.466q-4.842,3.228-9.707,6.468c.015-.063.023-.1.034-.139q1.573-5.35,3.152-10.7c.038-.129-.089-.278-.089-.278L109.9,11.013l-.052-.038Z" transform="translate(-109.349 0.453)" fill="#efe635" stroke="#efe635" stroke-width="1"/>
</svg>
