<svg xmlns="http://www.w3.org/2000/svg" xmlns:xlink="http://www.w3.org/1999/xlink" width="195.992" height="99.409" viewBox="0 0 195.992 99.409">
  <defs>
    <clipPath id="clip-path">
      <rect id="Rectangle_65" data-name="Rectangle 65" width="195.992" height="99.409" transform="translate(0 0.001)" fill="#fff9f7"/>
    </clipPath>
  </defs>
  <g id="Group_81" data-name="Group 81" transform="translate(0 -0.001)" clip-path="url(#clip-path)">
    <path id="Path_39" data-name="Path 39" d="M195.794,99.41H.2c-.065-.152-.13-.305-.2-.457a7.543,7.543,0,0,1,1.076-.84c3.7-1.94,7.581-3.6,11.092-5.841A36.007,36.007,0,0,0,23.794,79.491a38.8,38.8,0,0,0,4.939-14.149A69.945,69.945,0,0,0,29.355,53.1a107.528,107.528,0,0,0-1.518-14.649c-1.263-7.083-5.818-11.844-13.011-13.03a31.89,31.89,0,0,0-10.81-.365,21.363,21.363,0,0,1-3.452.029C1.854,19.926,2.957,14.882,4.4,9.934,5.824,5.021,9.237,2.35,14.417,1.845a14.85,14.85,0,0,1,9.621,1.843A12.585,12.585,0,0,1,29.664,12.4,71.772,71.772,0,0,1,30.9,22.831c.206,4.4.049,8.813.049,13.221l.429.024c.871-2.736,1.665-5.5,2.628-8.2A44.392,44.392,0,0,1,46.262,9.064,34.325,34.325,0,0,1,64.179.7,41.881,41.881,0,0,1,73.51.116C83.1.851,90.911,4.757,95.636,13.6A30.12,30.12,0,0,1,99.39,27c.084,2.723.288,5.443.45,8.378,1.013-2.733,1.96-5.318,2.927-7.9C105.1,21.249,108.115,15.394,113,10.749A37.109,37.109,0,0,1,132.493.63,34.191,34.191,0,0,1,152.8,2.79a23.341,23.341,0,0,1,13.421,15.623,33.635,33.635,0,0,1,1.232,7.208c.343,5.756.449,11.526.658,17.29q.14,3.865.3,7.729c.2,4.8.036,9.646.7,14.378a43.957,43.957,0,0,0,8.082,20.347,35.377,35.377,0,0,0,16.886,12.18,9.206,9.206,0,0,1,1.913,1.306c-.066.186-.131.372-.2.559m-113.583-8.6.426.4c1.747-1.858,3.547-3.668,5.231-5.58a39.708,39.708,0,0,0,7.277-12.64,40.006,40.006,0,0,0,2.448-16.128c-.181-3.646.31-7.291-.3-10.969a21.7,21.7,0,0,0-9.388-15.06A38.618,38.618,0,0,0,76.6,25.911,50.7,50.7,0,0,0,62.99,23.933a41.42,41.42,0,0,0-8.05.887,39.621,39.621,0,0,0-14.049,5.233,18.941,18.941,0,0,0-9.247,14.874c-.4,4.506-.049,9.077-.093,13.617a42.482,42.482,0,0,0,1.837,12.278,39.233,39.233,0,0,0,12.79,20.037c1.088.893,2.3,1.638,3.553,2.524.028-.3.048-.352.032-.374-.09-.123-.189-.238-.283-.356-3.211-4.053-4.408-8.536-3.005-13.619,2.1-7.609,8.836-11.842,16.033-12.646,5.818-.649,11.337.518,15.968,4.336a15.288,15.288,0,0,1,3.735,20.087m67.866,1.013c-.143.007-.048.032,0,0A41.963,41.963,0,0,0,166.2,60.978c.211-5.236.467-10.516-.513-15.752a21.378,21.378,0,0,0-11.684-15.817A46.649,46.649,0,0,0,125.7,24.458a42.005,42.005,0,0,0-15.606,5.217c-6.664,3.888-9.922,9.8-10.085,17.431-.095,4.375-.043,8.753,0,13.13a22.467,22.467,0,0,0,.333,4.208,55.525,55.525,0,0,0,5.26,15.335,41.345,41.345,0,0,0,8.681,10.744,31.136,31.136,0,0,0,2.878,2.138,2.217,2.217,0,0,0-.446-1.211c-4.257-6.466-3.361-13.817,1.856-19.361a18.6,18.6,0,0,1,11.926-5.682c7.024-.722,13.416.922,18.3,6.449a14.47,14.47,0,0,1,3.455,13.135,40.559,40.559,0,0,1-2.166,5.833M137.26,69.7c-2.694-.232-5.348,2.427-5.235,5.351.146,3.785,1.916,5.877,5.2,5.981,3.238.1,5.46-2.487,5.5-5.66.047-3.154-2.571-5.945-5.474-5.672m-68.12,0a5.667,5.667,0,0,0-.063,11.325c3.7.1,5.438-2.705,5.474-5.624s-1.624-5.605-5.411-5.7" fill="#fff9f7"/>
  </g>
</svg>
