<svg xmlns="http://www.w3.org/2000/svg"
  xmlns:xlink="http://www.w3.org/1999/xlink" viewBox="0 0 99.901 100">
  <defs>
    <clipPath id="clip-path">
      <rect id="Rectangle_35" data-name="Rectangle 35" width="99.901" height="100" fill="none"/>
    </clipPath>
  </defs>
  <g id="Group_45" data-name="Group 45" transform="translate(0 0)">
    <g id="Group_44" data-name="Group 44" transform="translate(0 0)" clip-path="url(#clip-path)">
      <path id="Path_22" data-name="Path 22" d="M60.523,98.633l-6.9-8.724L48.22,100c-1.564-3.529-3.026-6.833-4.635-10.468l-7.746,8.438c-.657-3.864-1.268-7.462-1.92-11.3L24.33,92.92c.335-3.892.648-7.537.983-11.434l-10.8,3.627c.495-1.483.879-2.667,1.287-3.842.688-1.985,1.382-3.968,2.1-5.944.284-.788.119-.975-.755-.892-2.284.218-4.579.3-6.869.455-1.023.068-2.044.168-3.332.276.305-.533.464-.842.652-1.13,1.621-2.476,3.235-4.956,4.88-7.415.467-.7.443-1.034-.482-1.186-3.084-.5-6.159-1.057-9.236-1.6a3.9,3.9,0,0,1-.721-.341l8.345-7.506L0,51.215l10.108-5.292L1.245,38.746,12.4,36.111l-6.839-9.1H16.926c-1.435-3.511-2.788-6.817-4.268-10.433l11.031,3.08c-.523-3.808-1.013-7.373-1.5-10.939l.242-.2,9.607,5.517c.444-3.824.86-7.413,1.312-11.3l8.161,7.993L45.62,0l5.912,9.8L58.18.461l3.286,10.96c2.908-2.462,5.681-4.81,8.456-7.158l.31.149c.148,3.534.3,7.067.452,10.809a8.7,8.7,0,0,0,1.363-.4c2.859-1.368,5.706-2.763,8.864-4.035-.747,3.531-1.5,7.063-2.306,10.894l11.25-2.255c-1.763,3.535-3.387,6.791-5.111,10.249l11.472.552-7.361,8.487a6.018,6.018,0,0,0,1.013.569c2.921.932,5.851,1.838,8.776,2.761a7.042,7.042,0,0,1,.8.394L90.2,48.878,99.9,54.89,89.295,58.839c1.349,1.482,2.572,2.877,3.853,4.216C94.4,64.366,95.715,65.622,97,66.9c-.047.092-.092.186-.139.28L85.729,68.319l5.586,9.974L80.017,76.6c1.007,3.766,1.945,7.271,2.959,11.064l-10.638-4.5c.119,3.984.229,7.694.345,11.62l-9.228-7.038c-.915,3.738-1.774,7.256-2.634,10.774l-.3.1" transform="translate(0 0)" fill="#f8ec00"/>
      <path id="Path_23" data-name="Path 23" d="M23.744,47.905A29.653,29.653,0,0,1,24.9,43.481c.739-1.723,2.349-2.184,4.124-1.991a3.607,3.607,0,0,1,3.215,2.81,19.793,19.793,0,0,1,.5,3.91c.077,1.1.016,2.2.016,3.418.314-1,.541-1.933.9-2.815,1.6-3.966,4.316-6.719,8.627-7.591a11.105,11.105,0,0,1,5.8.309,7.807,7.807,0,0,1,5.084,7.2c.051.91.008,1.826.008,2.609.6-1.434,1.14-3.017,1.906-4.48a11.361,11.361,0,0,1,12.934-5.5,7.1,7.1,0,0,1,5.423,6.253c.324,2.391.226,4.838.333,7.26a28.965,28.965,0,0,0,.312,4.985c.924,4.129,3.226,7.2,7.436,8.55a.811.811,0,0,1,.478.429H64.262a2.733,2.733,0,0,1,.556-.354,11.583,11.583,0,0,0,8.376-10.731c0-.915.018-1.83,0-2.745-.05-3.418-2.05-5.449-5.047-6.465a14.919,14.919,0,0,0-11.189.35,5.763,5.763,0,0,0-3.683,5.666,24.68,24.68,0,0,0,.24,4.992,11.235,11.235,0,0,0,8.092,8.908,5.8,5.8,0,0,1,.7.374H44.07c-.015-.066-.029-.132-.044-.2.242-.091.481-.193.728-.269a11.629,11.629,0,0,0,7.959-10.761c0-.6-.019-1.2,0-1.8.152-4.072-1.832-6.163-5.106-7.278A14.949,14.949,0,0,0,36.6,48.84a5.672,5.672,0,0,0-3.764,5.223,22.641,22.641,0,0,0,.3,5.92,11.091,11.091,0,0,0,7.87,8.439,3.722,3.722,0,0,1,.444.165c.042.02.055.1.129.246h-18l-.042-.139a3.051,3.051,0,0,1,.515-.274,11.527,11.527,0,0,0,8.169-10.307A28.339,28.339,0,0,0,31.9,52a4.752,4.752,0,0,0-4.858-4.088c-1-.048-2-.008-3.3-.008" transform="translate(-2.816 -4.9)" fill="#004c37"/>
    </g>
  </g>
</svg>
